<?xml version="1.0" encoding="utf-8"?>
<!-- Generator: Adobe Illustrator 16.0.0, SVG Export Plug-In . SVG Version: 6.00 Build 0)  -->
<!DOCTYPE svg PUBLIC "-//W3C//DTD SVG 1.1//EN" "http://www.w3.org/Graphics/SVG/1.1/DTD/svg11.dtd">
<svg version="1.1" id="Layer_1" xmlns="http://www.w3.org/2000/svg" xmlns:xlink="http://www.w3.org/1999/xlink" x="0px" y="0px"
	 width="152px" height="152px" viewBox="0 0 152 152" enable-background="new 0 0 152 152" xml:space="preserve">
<g display="none">
	<path display="inline" fill="#010101" d="M111.882,62.195c-2.839-6.826-7.1-12.926-12.36-18.047
		c-5.364-5.327-11.519-9.361-18.357-12.151c-7.155-2.95-14.727-4.501-22.514-4.501c-7.729,0-15.356,1.551-22.459,4.501
		c-6.84,2.791-13.047,6.825-18.41,12.151C12.57,49.269,8.415,55.369,5.416,62.195C2.417,69.23,1,76.523,1,84.174
		c0,7.809,1.416,15.1,4.416,22.139c2.999,6.826,7.154,12.928,12.363,18.045c5.363,5.328,11.57,9.362,18.41,12.153
		c7.104,2.948,14.73,4.55,22.459,4.55c7.788,0,15.359-1.602,22.514-4.55c6.84-2.791,12.992-6.825,18.357-12.153
		c5.262-5.117,9.521-11.219,12.36-18.045c3.052-7.039,4.632-14.33,4.632-22.139C116.514,76.523,114.934,69.23,111.882,62.195
		 M86.055,111.12c-7.258,7.347-17.098,11.225-27.406,11.225s-20.093-3.878-27.405-11.225c-7.261-7.142-11.255-16.655-11.255-26.946
		c0-10.135,3.995-19.599,11.255-26.788c7.312-7.344,17.097-11.221,27.405-11.221s20.148,3.877,27.406,11.221
		c7.314,7.189,11.416,16.652,11.416,26.788C97.471,94.465,93.369,103.979,86.055,111.12"/>
	<path display="inline" fill="#FF5000" d="M143.482,49.505c-7.906,7.907-18.741,9.893-24.203,4.433
		c-5.459-5.458-3.471-16.295,4.436-24.202c7.907-7.909,18.742-9.895,24.204-4.434C153.377,30.761,151.391,41.596,143.482,49.505"/>
	<path display="inline" fill="#FF5000" d="M133.854,79.73c-5.979-2.176-9.604-7.282-8.104-11.413
		c1.502-4.125,7.564-5.708,13.544-3.529c5.978,2.175,9.606,7.285,8.103,11.409C145.896,80.326,139.831,81.906,133.854,79.73"/>
	<path display="inline" fill="#FF5000" d="M116.201,22.479c0,6.374-3.566,11.54-7.969,11.54c-4.397,0-7.965-5.166-7.965-11.54
		c0-6.373,3.566-11.539,7.965-11.539C112.635,10.94,116.201,16.106,116.201,22.479"/>
</g>
<g display="none">
	<rect x="1" y="64.338" display="inline" fill="#010101" width="2.942" height="16.076"/>
	<polygon display="inline" fill="#010101" points="21.13,64.338 21.13,80.414 18.489,80.414 9.596,69.014 9.596,80.414 
		6.657,80.414 6.657,64.338 9.682,64.338 18.269,75.345 18.269,64.338 	"/>
	<path display="inline" fill="#010101" d="M38.079,69.083c-0.372-0.877-0.916-1.651-1.599-2.304
		c-2.545-2.397-6.357-2.441-6.998-2.441H24.27v16.076h5.296c0.773,0,4.468-0.134,6.936-2.484c0.683-0.652,1.206-1.427,1.577-2.304
		c0.413-0.955,0.618-2.059,0.618-3.237C38.697,71.164,38.492,70.06,38.079,69.083 M35.46,74.504
		c-0.212,0.503-0.531,0.962-0.934,1.359c-1.777,1.7-4.793,1.659-4.877,1.659h-2.308V67.06h2.308c0.024,0,0.767-0.024,1.761,0.162
		c0.912,0.173,2.167,0.572,3.092,1.45c0.402,0.375,0.724,0.856,0.935,1.383c0.272,0.609,0.402,1.512,0.402,2.333
		C35.84,73.184,35.711,73.897,35.46,74.504"/>
	<path display="inline" fill="#010101" d="M82.669,75.589l1.918,1.892c-0.587,0.717-1.305,1.326-2.118,1.797
		c-1.259,0.73-2.691,1.138-4.152,1.138c-1.113,0-2.167-0.229-3.17-0.647c-0.995-0.401-1.868-0.977-2.606-1.738
		c-0.756-0.733-1.344-1.606-1.744-2.579c-0.428-1.007-0.648-2.048-0.648-3.147c0-1.115,0.22-2.156,0.648-3.163
		c0.399-0.977,0.988-1.847,1.744-2.58c0.738-0.758,1.611-1.339,2.606-1.736c0.51-0.212,1.038-0.376,1.579-0.489
		c0.517-0.1,1.053-0.154,1.592-0.154c0.328,0,0.658,0.021,0.981,0.062c0.938,0.108,1.847,0.375,2.692,0.803
		c1.1,0.553,1.832,1.083,2.597,2.06l-1.918,1.879c-0.501-0.643-1.146-1.175-1.882-1.56c-0.788-0.375-1.615-0.574-2.471-0.574
		c-1.479,0-2.837,0.553-3.872,1.603c-1.048,1.02-1.613,2.381-1.613,3.85c0,1.453,0.565,2.813,1.613,3.833
		c1.034,1.051,2.392,1.604,3.872,1.604c0.969,0,1.949-0.269,2.785-0.753C81.712,76.62,82.246,76.146,82.669,75.589"/>
	<path display="inline" fill="#010101" d="M101.475,69.157c-0.404-0.977-1.014-1.848-1.764-2.579
		c-0.766-0.76-1.645-1.336-2.621-1.734c-1.02-0.42-2.102-0.642-3.213-0.642c-1.104,0-2.191,0.222-3.206,0.642
		c-0.978,0.398-1.862,0.974-2.627,1.734c-0.743,0.731-1.339,1.602-1.769,2.579c-0.426,1.002-0.629,2.043-0.629,3.137
		c0,1.115,0.203,2.156,0.629,3.159c0.43,0.975,1.024,1.846,1.769,2.574c0.765,0.763,1.649,1.337,2.627,1.738
		c1.015,0.418,2.103,0.647,3.206,0.647c1.111,0,2.193-0.229,3.213-0.647c0.977-0.401,1.855-0.977,2.621-1.738
		c0.75-0.729,1.359-1.601,1.764-2.574c0.438-1.003,0.662-2.044,0.662-3.159C102.137,71.2,101.911,70.159,101.475,69.157
		 M97.788,76.14c-1.036,1.049-2.44,1.603-3.911,1.603c-1.473,0-2.869-0.554-3.913-1.603c-1.036-1.018-1.606-2.377-1.606-3.846
		c0-1.448,0.57-2.799,1.606-3.825c1.044-1.05,2.44-1.603,3.913-1.603c1.471,0,2.875,0.553,3.911,1.603
		c1.046,1.026,1.63,2.377,1.63,3.825C99.418,73.763,98.834,75.122,97.788,76.14"/>
	<path display="inline" fill="#010101" d="M63.871,64.337h-3.207L54.868,77.77l-1.149,2.646h3.077l1.5-3.388h8.044l1.471,3.388
		h3.012L63.871,64.337z M59.355,74.601l2.959-6.815l2.974,6.815H59.355z"/>
	<path display="inline" fill="#010101" d="M54.298,78.191l-3.125-4.67c0.683-0.16,1.532-0.503,2.238-1.179
		c0.409-0.407,0.735-0.856,0.94-1.405c0.227-0.562,0.363-1.216,0.363-1.945c0-1.854-0.895-3.325-2.487-4.09
		c-1.124-0.541-2.2-0.565-2.333-0.565h-9.503v16.077h2.969V66.823h6.508c0.043,0,0.666,0.024,1.26,0.315
		c0.728,0.361,1.078,0.955,1.078,1.854c0,0.709-0.19,1.206-0.557,1.564c-0.612,0.583-1.647,0.608-1.738,0.608h-3.898l6.487,9.25
		h3.284L54.298,78.191z"/>
	<path display="inline" fill="#FF5000" d="M105.988,67.343c-1.131,1.13-2.676,1.411-3.457,0.633
		c-0.779-0.778-0.495-2.324,0.635-3.453c1.129-1.131,2.675-1.414,3.454-0.636C107.398,64.668,107.115,66.215,105.988,67.343"/>
	<path display="inline" fill="#FF5000" d="M104.611,71.659c-0.854-0.309-1.371-1.04-1.155-1.63c0.213-0.587,1.08-0.814,1.935-0.503
		c0.853,0.31,1.371,1.04,1.155,1.63C106.331,71.745,105.468,71.969,104.611,71.659"/>
	<path display="inline" fill="#FF5000" d="M102.093,63.486c0,0.909-0.51,1.648-1.137,1.648c-0.629,0-1.14-0.739-1.14-1.648
		c0-0.91,0.511-1.648,1.14-1.648C101.583,61.838,102.093,62.577,102.093,63.486"/>
	
		<text transform="matrix(1 0 0 1 110.3867 80.3945)" display="inline" fill="#FF5000" font-family="'HelveticaNeue'" font-size="20.307">Poin</text>
</g>
<g display="none">
	<g display="inline">
		<path fill="#DCAA00" d="M321.538,77.188c-0.028-0.067-0.076-0.098-0.142-0.067c-0.068,0.028-0.064,0.088-0.039,0.146
			c0.12,0.287,0.12,0.58,0.032,0.875c-0.039,0.135-0.064,0.271-0.063,0.375c-0.001,0.258,0.044,0.465,0.135,0.664
			c0.024,0.055,0.065,0.092,0.129,0.064s0.079-0.076,0.05-0.143c-0.127-0.295-0.121-0.597-0.028-0.898
			C321.715,77.854,321.68,77.518,321.538,77.188z"/>
		<path fill="#DCAA00" d="M321.498,76.297c-1.038,0-1.881,0.842-1.881,1.88s0.843,1.88,1.881,1.88c1.037,0,1.88-0.842,1.88-1.88
			S322.535,76.297,321.498,76.297z M322.309,78.934c-0.121,0.271-0.307,0.478-0.609,0.545c-0.38,0.086-0.727-0.061-0.934-0.393
			c-0.145-0.234-0.223-0.549-0.223-0.857c0.003-0.369,0.051-0.679,0.225-0.955c0.362-0.582,1.154-0.558,1.486,0.043
			c0.116,0.209,0.174,0.437,0.189,0.673C322.469,78.313,322.441,78.632,322.309,78.934z"/>
	</g>
	<path display="inline" fill="#6E6F72" d="M324.01,78.133l-0.432-0.418l0.217-0.561l-0.52-0.199V76.4h-0.603l-0.233-0.555
		l-0.554,0.235l-0.433-0.417l-0.418,0.432l-0.563-0.215l-0.197,0.52h-0.557V77l-0.553,0.234l0.234,0.554l-0.417,0.433l0.433,0.418
		L319.2,79.2l0.519,0.198v0.557h0.45v-0.446c-0.342-0.34-0.554-0.811-0.554-1.331c0-1.037,0.843-1.88,1.881-1.88
		c1.037,0,1.88,0.843,1.88,1.88c0,0.521-0.212,0.991-0.554,1.331v0.446h0.451v-0.602l0.553-0.234l-0.234-0.555L324.01,78.133z"/>
	<path display="inline" fill="#FFFFFF" d="M320.543,78.229c0.003-0.369,0.051-0.679,0.225-0.955
		c0.362-0.582,1.154-0.558,1.486,0.043c0.116,0.209,0.174,0.437,0.189,0.673c0.024,0.323-0.002,0.644-0.136,0.944
		c-0.121,0.271-0.307,0.478-0.609,0.545c-0.38,0.086-0.727-0.061-0.934-0.393C320.621,78.852,320.543,78.537,320.543,78.229
		 M321.327,78.516c-0.001,0.258,0.044,0.465,0.135,0.664c0.024,0.055,0.065,0.092,0.129,0.064s0.079-0.076,0.05-0.143
		c-0.127-0.295-0.121-0.597-0.028-0.898c0.104-0.35,0.067-0.686-0.073-1.016c-0.028-0.068-0.076-0.099-0.142-0.068
		c-0.068,0.027-0.064,0.088-0.039,0.146c0.12,0.286,0.12,0.578,0.032,0.873C321.352,78.275,321.325,78.412,321.327,78.516"/>
	<path display="inline" fill="#FFFFFF" d="M321.498,80.057c-0.37,0-0.713-0.109-1.004-0.295v2.098l1.004-0.518l1.004,0.518v-2.099
		C322.211,79.945,321.868,80.057,321.498,80.057z"/>
	<g display="inline">
		<path fill="#595A5C" d="M320.496,79.762c0.003,0.002,0.006,0.002,0.008,0.004c-0.119-0.074-0.23-0.158-0.331-0.258v2.352
			l0.323-0.166V79.762z"/>
		<path fill="#595A5C" d="M322.503,79.762C322.503,79.761,322.504,79.761,322.503,79.762l0.001,1.932l0.322,0.166v-2.352
			C322.729,79.604,322.619,79.688,322.503,79.762z"/>
	</g>
</g>
<g display="none">
	<path display="inline" d="M137.837,6.413L96.779,7.097c-1.979,0.036-3.887,0.846-5.254,2.249L47.465,53.354
		c-1.979,2.015-4.931,2.735-7.629,1.907L6.426,44.862l100.717,100.726l-10.381-33.429c-0.863-2.699-0.144-5.649,1.87-7.629
		l44.026-44.052c1.402-1.404,2.193-3.275,2.23-5.254l0.682-41.057C145.646,9.85,142.137,6.341,137.837,6.413z"/>
	<path display="inline" d="M47.897,98.342L17.221,83.615l-0.666,39.339c-0.108,6.944,5.542,12.595,12.487,12.485l39.312-0.647
		L53.673,104.1C52.466,101.58,50.416,99.527,47.897,98.342z"/>
</g>
<path display="none" d="M72.24,7.895L5.921,45.029C3.511,46.36,2,48.952,2,51.722v85.705c0,4.21,3.436,7.664,7.664,7.664h19.414
	c4.228,0,7.682-3.454,7.682-7.664v-36.56c0-4.246,3.418-7.655,7.665-7.655h63.115c4.246,0,7.683,3.409,7.683,7.655v36.56
	c0,4.21,3.437,7.664,7.664,7.664H142.3c4.246,0,7.7-3.454,7.7-7.664V51.722c0-2.771-1.512-5.362-3.923-6.693L79.742,7.895
	C77.402,6.581,74.561,6.581,72.24,7.895"/>
<g display="none">
	<path display="inline" d="M140.57,6.368H12.063c-5.11,0-9.266,4.048-9.392,9.122L2.078,42.117
		c-0.072,3.491,1.763,6.693,4.786,8.385l64.5,36.127c2.843,1.583,6.297,1.583,9.158,0l64.617-36.164
		c2.969-1.655,4.786-4.786,4.786-8.205V15.74C149.925,10.56,145.751,6.368,140.57,6.368z"/>
	<path display="inline" d="M76.887,95.398c-13.871,0-25.134,11.228-25.134,25.117c0,13.854,11.263,25.115,25.134,25.115
		c13.873,0,25.127-11.263,25.127-25.115C102.014,106.626,90.76,95.398,76.887,95.398z"/>
</g>
<g display="none">
	<path display="inline" d="M139.835,132.021l-23.66-23.76c8.888-10.686,13.97-23.873,13.97-37.92
		c0-32.948-26.83-59.779-59.804-59.779c-32.947,0-59.778,26.831-59.778,59.779c0,32.938,26.832,59.768,59.778,59.768
		c3.045,0,5.512-2.467,5.512-5.486c0-3.07-2.467-5.537-5.512-5.537c-26.881,0-48.754-21.859-48.754-48.743
		c0-26.881,21.874-48.754,48.754-48.754c26.907,0,48.78,21.873,48.78,48.754c0,12.988-5.061,25.222-14.247,34.445
		c-0.63,0.604-0.681,1.461-0.933,2.267c-0.176,0.553-0.652,1.006-0.652,1.609c0,0.554,0.479,1.059,0.652,1.611
		c0.252,0.755,0.303,1.61,0.933,2.266l27.158,27.234c1.083,1.106,2.493,1.66,3.901,1.66c1.409,0,2.817-0.554,3.877-1.61
		C141.975,137.66,141.975,134.188,139.835,132.021z"/>
	<path display="inline" d="M76.019,10.558c-29.147,0-52.882,23.735-52.882,52.883v12.686c0,3.044,2.466,5.512,5.512,5.512
		s5.513-2.468,5.513-5.512V63.44c0-23.081,18.776-41.858,41.857-41.858c23.083,0,41.821,18.777,41.821,41.858v41.832H28.648
		c-3.045,0-5.512,2.468-5.512,5.515c0,3.044,2.466,5.511,5.512,5.511h20.69c1.033,13.971,12.41,25.145,26.655,25.145
		c14.247,0,25.624-11.174,26.644-25.145h20.739c3.021,0,5.485-2.467,5.485-5.511V63.44C128.863,34.293,105.154,10.558,76.019,10.558
		z M75.994,130.418c-8.154,0-14.649-6.217-15.63-14.121h31.26C90.645,124.201,84.148,130.418,75.994,130.418z"/>
	<path display="inline" d="M97.84,83.104c10.688-7.098,17.734-19.206,17.734-32.947c0-21.822-17.76-39.593-39.581-39.593
		c-21.823,0-39.567,17.771-39.567,39.593c0,13.742,7.048,25.85,17.719,32.947c-20.715,8.608-35.338,29.033-35.338,52.795
		c0,3.07,2.466,5.537,5.512,5.537c3.046,0,5.512-2.467,5.512-5.537c0-25.422,20.715-46.148,46.187-46.148
		c25.449,0,46.15,20.727,46.15,46.148c0,3.07,2.467,5.537,5.538,5.537c3.021,0,5.485-2.467,5.485-5.537
		C133.191,112.088,118.594,91.688,97.84,83.104z M47.45,50.157c0-15.756,12.787-28.568,28.543-28.568
		c15.756,0,28.557,12.811,28.557,28.568c0,15.757-12.8,28.543-28.556,28.543C60.238,78.7,47.45,65.913,47.45,50.157z"/>
	<g display="inline">
		<path d="M114.266,81.313c-3.021,0-5.486,2.467-5.486,5.513v43.569H21.602v-87.19h43.569c3.045,0,5.512-2.467,5.512-5.512
			c0-3.046-2.467-5.512-5.512-5.512H16.088c-3.045,0-5.512,2.465-5.512,5.512v98.213c0,3.047,2.467,5.512,5.512,5.512h98.176
			c3.071,0,5.538-2.465,5.538-5.512V86.824C119.803,83.777,117.336,81.313,114.266,81.313z"/>
		<path d="M50.597,75.372l-5.915,25.319c-0.429,1.863,0.126,3.802,1.459,5.16c1.057,1.032,2.467,1.61,3.901,1.61
			c0.429,0,0.832-0.049,1.258-0.149l25.322-5.916c0.981-0.227,1.912-0.754,2.644-1.461l36.205-36.193
			c1.059-1.032,1.612-2.441,1.612-3.901s-0.554-2.87-1.612-3.902L96.055,36.508c-2.063-2.063-5.738-2.063-7.803,0l-36.195,36.22
			C51.352,73.458,50.823,74.389,50.597,75.372z M60.967,79.396l31.186-31.209l11.642,11.654L72.596,91.027l-15.178,3.55
			L60.967,79.396z"/>
		<path d="M139.837,31.575l-19.431-19.406c-2.165-2.115-5.637-2.115-7.803,0L100.686,24.1c-2.139,2.165-2.139,5.637,0,7.802
			l19.42,19.407c1.057,1.057,2.467,1.611,3.875,1.611c1.41,0,2.82-0.554,3.929-1.611l11.929-11.931
			C141.952,37.213,141.952,33.74,139.837,31.575z M123.98,39.63l-11.629-11.629l4.18-4.153l11.628,11.629L123.98,39.63z"/>
	</g>
	<g display="inline">
		<path d="M122.941,37.836H29.058c-3.046,0-5.513-2.467-5.513-5.513c0-3.045,2.467-5.512,5.513-5.512h93.883
			c3.047,0,5.514,2.467,5.514,5.512C128.455,35.369,125.988,37.836,122.941,37.836z"/>
		<path d="M122.941,81.53H29.058c-3.046,0-5.513-2.466-5.513-5.512c0-3.045,2.467-5.512,5.513-5.512h93.883
			c3.047,0,5.514,2.466,5.514,5.512C128.455,79.064,125.988,81.53,122.941,81.53z"/>
		<path d="M122.941,125.188H29.058c-3.046,0-5.513-2.467-5.513-5.486c0-3.071,2.467-5.538,5.513-5.538h93.883
			c3.047,0,5.514,2.467,5.514,5.538C128.455,122.723,125.988,125.188,122.941,125.188z"/>
	</g>
	<path display="inline" d="M42.222,150c-1.662,0-3.297-0.63-4.556-1.889c-2.517-2.519-2.517-6.594,0-9.111l63.001-63L37.666,12.999
		c-2.517-2.517-2.517-6.594,0-9.111c2.517-2.518,6.594-2.518,9.111,0l67.556,67.556c2.519,2.517,2.519,6.594,0,9.111l-67.556,67.557
		C45.519,149.37,43.883,150,42.222,150z"/>
</g>
<g display="none">
	<path display="inline" d="M140.658,14.029c-0.129-1.44-1.24-2.571-2.663-2.699L83.154,6.316c-0.93-0.073-1.752,0.255-2.407,0.875
		l-73.56,73.56c-1.185,1.187-1.185,3.081,0,4.229l59.811,59.838c0.547,0.564,1.331,0.875,2.115,0.875
		c0.802,0,1.55-0.311,2.115-0.875l73.586-73.586c0.64-0.639,0.949-1.514,0.875-2.407L140.658,14.029z M69.113,138.51L13.497,82.866
		L83.975,12.37l51.014,4.65l4.648,50.985L69.113,138.51z"/>
	<path display="inline" d="M67.526,76.775c-0.838-1.367-1.877-2.682-3.063-3.866c-1.277-1.24-2.571-2.334-3.921-3.228
		c-1.331-0.875-2.717-1.477-4.121-1.714c-1.404-0.255-2.826-0.165-4.249,0.255c-1.422,0.474-2.881,1.404-4.303,2.844
		c-1.404,1.404-2.334,2.845-2.79,4.322c-0.456,1.459-0.529,2.899-0.255,4.34c0.273,1.439,0.838,2.862,1.731,4.229
		c0.894,1.351,1.933,2.662,3.21,3.938c1.239,1.275,2.553,2.315,3.92,3.154c1.367,0.856,2.771,1.387,4.176,1.659
		c1.404,0.22,2.863,0.108,4.285-0.383c1.422-0.476,2.826-1.404,4.194-2.79c1.367-1.35,2.261-2.735,2.626-4.176
		c0.4-1.44,0.474-2.899,0.236-4.34C68.968,79.602,68.421,78.161,67.526,76.775z M63.679,87.169
		c-0.875,0.839-1.786,1.313-2.734,1.368c-0.912,0.055-1.879-0.092-2.809-0.456c-0.967-0.401-1.842-0.948-2.698-1.659
		c-0.857-0.729-1.642-1.423-2.316-2.079c-0.711-0.711-1.422-1.495-2.115-2.37c-0.675-0.875-1.203-1.806-1.55-2.734
		c-0.4-0.948-0.529-1.934-0.475-2.899c0.074-0.948,0.566-1.878,1.404-2.735c0.895-0.875,1.824-1.349,2.791-1.44
		c0.947-0.037,1.877,0.109,2.826,0.492c0.93,0.401,1.842,0.948,2.717,1.642c0.839,0.711,1.623,1.386,2.279,2.079
		c0.711,0.693,1.404,1.514,2.115,2.407c0.729,0.875,1.258,1.786,1.623,2.754c0.364,0.948,0.492,1.914,0.419,2.845
		C65.065,85.346,64.555,86.275,63.679,87.169z"/>
	<polygon display="inline" points="69.022,48.694 78.468,107.766 82.461,103.809 72.961,44.81 	"/>
	<path display="inline" d="M105.082,68.752c-0.857-1.367-1.896-2.662-3.082-3.865c-1.259-1.259-2.57-2.334-3.921-3.209
		c-1.331-0.894-2.718-1.496-4.147-1.732c-1.387-0.255-2.789-0.164-4.248,0.273c-1.404,0.456-2.863,1.368-4.305,2.845
		c-1.404,1.404-2.334,2.826-2.771,4.285c-0.455,1.477-0.547,2.936-0.256,4.376c0.273,1.422,0.84,2.845,1.715,4.194
		c0.895,1.386,1.934,2.699,3.209,3.976c1.259,1.258,2.572,2.297,3.938,3.137c1.386,0.857,2.735,1.367,4.167,1.623
		c1.404,0.236,2.809,0.109,4.249-0.383c1.422-0.476,2.826-1.404,4.193-2.791c1.35-1.33,2.243-2.734,2.645-4.176
		c0.438-1.404,0.511-2.845,0.273-4.304C106.484,71.561,105.938,70.138,105.082,68.752z M101.197,79.146
		c-0.856,0.855-1.731,1.293-2.717,1.386c-0.931,0.036-1.896-0.109-2.846-0.492c-0.894-0.401-1.814-0.948-2.689-1.642
		c-0.838-0.711-1.623-1.404-2.314-2.08c-0.693-0.693-1.404-1.514-2.098-2.353c-0.676-0.894-1.223-1.805-1.586-2.735
		c-0.365-0.967-0.492-1.915-0.438-2.899c0.091-0.985,0.565-1.896,1.403-2.754c0.895-0.875,1.824-1.367,2.771-1.422
		c0.948-0.073,1.879,0.091,2.846,0.474c0.93,0.401,1.851,0.93,2.707,1.66c0.856,0.711,1.623,1.404,2.279,2.061
		c0.711,0.711,1.403,1.495,2.133,2.389c0.729,0.912,1.24,1.824,1.604,2.753c0.384,0.967,0.511,1.915,0.438,2.881
		C102.583,77.322,102.109,78.253,101.197,79.146z"/>
</g>
<polygon points="8.5,152 76,68.5 143.5,152 "/>
</svg>
