<?xml version="1.0" encoding="utf-8"?>
<!-- Generator: Adobe Illustrator 16.0.0, SVG Export Plug-In . SVG Version: 6.00 Build 0)  -->
<!DOCTYPE svg PUBLIC "-//W3C//DTD SVG 1.1//EN" "http://www.w3.org/Graphics/SVG/1.1/DTD/svg11.dtd">
<svg version="1.1" id="Layer_1" xmlns="http://www.w3.org/2000/svg" xmlns:xlink="http://www.w3.org/1999/xlink" x="0px" y="0px"
	 width="152px" height="152px" viewBox="0 0 152 152" enable-background="new 0 0 152 152" xml:space="preserve">
<g>
	<path fill="#010101" d="M111.882,62.195c-2.839-6.826-7.1-12.926-12.36-18.047c-5.365-5.327-11.519-9.361-18.358-12.151
		c-7.155-2.95-14.727-4.501-22.514-4.501c-7.729,0-15.356,1.551-22.459,4.501c-6.84,2.791-13.047,6.825-18.41,12.151
		C12.57,49.269,8.415,55.369,5.416,62.195C2.417,69.23,1,76.523,1,84.174c0,7.808,1.416,15.1,4.416,22.138
		c2.999,6.827,7.154,12.928,12.363,18.045c5.363,5.328,11.57,9.363,18.41,12.154c7.104,2.948,14.73,4.549,22.459,4.549
		c7.788,0,15.359-1.601,22.514-4.549c6.84-2.791,12.993-6.826,18.358-12.154c5.261-5.117,9.521-11.218,12.36-18.045
		c3.051-7.038,4.631-14.33,4.631-22.138C116.513,76.523,114.933,69.23,111.882,62.195 M86.054,111.12
		c-7.257,7.347-17.097,11.225-27.405,11.225s-20.093-3.878-27.405-11.225c-7.261-7.141-11.255-16.655-11.255-26.946
		c0-10.135,3.995-19.599,11.255-26.788c7.312-7.344,17.097-11.221,27.405-11.221s20.148,3.877,27.405,11.221
		c7.315,7.189,11.416,16.652,11.416,26.788C97.47,94.465,93.369,103.979,86.054,111.12"/>
	<path fill="#FF5000" d="M143.483,49.505c-7.907,7.907-18.742,9.893-24.204,4.433c-5.458-5.458-3.471-16.295,4.436-24.202
		c7.907-7.909,18.742-9.895,24.204-4.434C153.377,30.761,151.391,41.596,143.483,49.505"/>
	<path fill="#FF5000" d="M133.853,79.731c-5.979-2.176-9.604-7.283-8.103-11.413c1.502-4.125,7.565-5.708,13.544-3.529
		c5.978,2.175,9.606,7.285,8.102,11.409C145.897,80.326,139.831,81.906,133.853,79.731"/>
	<path fill="#FF5000" d="M116.201,22.479c0,6.374-3.566,11.54-7.969,11.54c-4.397,0-7.965-5.166-7.965-11.54
		c0-6.373,3.567-11.539,7.965-11.539C112.635,10.94,116.201,16.106,116.201,22.479"/>
</g>
<g display="none">
	<rect x="-31.229" y="59.326" display="inline" fill="#010101" width="4.207" height="22.984"/>
	<polygon display="inline" fill="#010101" points="-2.449,59.326 -2.449,82.311 -6.224,82.311 -18.94,66.012 -18.94,82.311 
		-23.141,82.311 -23.141,59.326 -18.816,59.326 -6.54,75.063 -6.54,59.326 	"/>
	<path display="inline" fill="#010101" d="M21.784,66.11c-0.531-1.254-1.31-2.36-2.286-3.293c-3.639-3.428-9.089-3.491-10.004-3.491
		H2.04v22.984h7.572c1.105,0,6.389-0.191,9.917-3.553c0.977-0.933,1.724-2.039,2.255-3.293c0.59-1.365,0.884-2.944,0.884-4.628
		C22.667,69.086,22.374,67.507,21.784,66.11 M18.04,73.861c-0.303,0.72-0.76,1.375-1.335,1.943c-2.54,2.429-6.853,2.372-6.973,2.372
		H6.433V63.219h3.299c0.034,0,1.097-0.034,2.519,0.231c1.304,0.247,3.099,0.818,4.421,2.073c0.574,0.537,1.034,1.224,1.337,1.978
		c0.39,0.871,0.574,2.162,0.574,3.336C18.583,71.974,18.398,72.993,18.04,73.861"/>
	<path display="inline" fill="#010101" d="M85.535,75.412l2.742,2.703c-0.84,1.025-1.865,1.897-3.029,2.57
		c-1.799,1.044-3.85,1.625-5.936,1.625c-1.594,0-3.101-0.327-4.535-0.927c-1.422-0.574-2.67-1.396-3.726-2.483
		c-1.081-1.051-1.922-2.299-2.493-3.688c-0.612-1.44-0.927-2.929-0.927-4.499c0-1.594,0.314-3.083,0.927-4.522
		c0.571-1.396,1.412-2.641,2.493-3.688c1.056-1.084,2.304-1.914,3.726-2.482c0.729-0.304,1.483-0.538,2.257-0.699
		c0.738-0.143,1.506-0.221,2.277-0.221c0.467,0,0.939,0.03,1.402,0.088c1.342,0.154,2.639,0.537,3.85,1.147
		c1.572,0.791,2.619,1.548,3.713,2.945l-2.742,2.688c-0.717-0.92-1.637-1.68-2.691-2.23c-1.127-0.537-2.309-0.821-3.531-0.821
		c-2.115,0-4.058,0.791-5.536,2.292c-1.498,1.458-2.306,3.404-2.306,5.505c0,2.077,0.808,4.022,2.306,5.48
		c1.478,1.502,3.42,2.293,5.536,2.293c1.385,0,2.787-0.383,3.982-1.075C84.166,76.886,84.93,76.209,85.535,75.412"/>
	<path display="inline" fill="#010101" d="M112.422,66.216c-0.578-1.396-1.449-2.642-2.521-3.687
		c-1.094-1.087-2.352-1.91-3.748-2.479c-1.457-0.601-3.004-0.918-4.594-0.918c-1.578,0-3.135,0.317-4.584,0.918
		c-1.396,0.568-2.662,1.392-3.756,2.479c-1.063,1.045-1.914,2.29-2.527,3.687c-0.609,1.433-0.898,2.922-0.898,4.485
		c0,1.594,0.289,3.083,0.898,4.517c0.613,1.394,1.465,2.639,2.527,3.683c1.094,1.088,2.359,1.909,3.756,2.483
		c1.449,0.6,3.006,0.927,4.584,0.927c1.59,0,3.137-0.327,4.594-0.927c1.396-0.574,2.654-1.396,3.748-2.483
		c1.072-1.044,1.943-2.289,2.521-3.683c0.623-1.434,0.945-2.923,0.945-4.517C113.367,69.138,113.045,67.648,112.422,66.216
		 M107.15,76.2c-1.48,1.501-3.488,2.292-5.592,2.292s-4.102-0.791-5.594-2.292c-1.482-1.455-2.299-3.398-2.299-5.499
		c0-2.07,0.816-4.001,2.299-5.469c1.492-1.501,3.49-2.292,5.594-2.292s4.111,0.791,5.592,2.292c1.496,1.468,2.33,3.398,2.33,5.469
		C109.48,72.802,108.646,74.745,107.15,76.2"/>
	<path display="inline" fill="#010101" d="M58.658,59.325h-4.585l-8.286,19.204l-1.643,3.781h4.399l2.145-4.844h11.501l2.104,4.844
		h4.307L58.658,59.325z M52.202,74l4.231-9.743L60.685,74H52.202z"/>
	<path display="inline" fill="#010101" d="M44.972,79.135l-4.467-6.679c0.976-0.229,2.189-0.72,3.199-1.687
		c0.584-0.581,1.051-1.224,1.345-2.009c0.324-0.803,0.519-1.739,0.519-2.78c0-2.65-1.279-4.754-3.556-5.848
		c-1.606-0.772-3.145-0.808-3.336-0.808H25.089v22.985h4.245V62.879h9.305c0.062,0,0.952,0.034,1.801,0.451
		c1.041,0.516,1.541,1.365,1.541,2.65c0,1.014-0.271,1.724-0.796,2.236c-0.875,0.834-2.354,0.869-2.484,0.869h-5.573l9.274,13.225
		h4.695L44.972,79.135z"/>
	<path display="inline" fill="#FF5000" d="M118.875,63.623c-1.615,1.616-3.824,2.018-4.943,0.905
		c-1.113-1.112-0.707-3.323,0.908-4.938c1.613-1.616,3.824-2.021,4.938-0.909C120.893,59.799,120.486,62.011,118.875,63.623"/>
	<path display="inline" fill="#FF5000" d="M116.906,69.793c-1.221-0.441-1.961-1.486-1.652-2.33c0.305-0.84,1.545-1.164,2.766-0.72
		c1.219,0.442,1.961,1.486,1.652,2.33C119.365,69.916,118.131,70.237,116.906,69.793"/>
	<path display="inline" fill="#FF5000" d="M113.305,58.109c0,1.299-0.729,2.355-1.625,2.355c-0.898,0-1.629-1.057-1.629-2.355
		c0-1.301,0.73-2.357,1.629-2.357C112.576,55.752,113.305,56.809,113.305,58.109"/>
	
		<text transform="matrix(1 0 0 1 125.1631 82.2832)" display="inline" fill="#FF5000" font-family="'HelveticaNeue'" font-size="29.0333">Poin</text>
</g>
<path display="none" d="M78.477,78.174l-0.918-0.922c0.345-0.415,0.542-0.926,0.542-1.471c0-1.278-1.041-2.319-2.32-2.319
	c-1.278,0-2.319,1.041-2.319,2.319c0,1.278,1.041,2.319,2.319,2.319c0.118,0,0.214-0.096,0.214-0.213
	c0-0.119-0.096-0.215-0.214-0.215c-1.043,0-1.892-0.848-1.892-1.891s0.849-1.892,1.892-1.892c1.044,0,1.893,0.849,1.893,1.892
	c0,0.504-0.196,0.979-0.553,1.336c-0.024,0.023-0.026,0.057-0.036,0.088c-0.007,0.021-0.025,0.039-0.025,0.063
	c0,0.021,0.019,0.041,0.025,0.063c0.01,0.029,0.012,0.063,0.036,0.088l1.054,1.057c0.042,0.043,0.097,0.064,0.151,0.064
	s0.109-0.021,0.15-0.063C78.56,78.393,78.56,78.258,78.477,78.174z"/>
<path display="none" d="M76,73.461c-1.131,0-2.052,0.921-2.052,2.052v0.492c0,0.118,0.096,0.214,0.214,0.214
	s0.214-0.096,0.214-0.214v-0.492c0-0.896,0.729-1.624,1.624-1.624s1.623,0.729,1.623,1.624v1.623h-3.46
	c-0.118,0-0.214,0.096-0.214,0.214s0.096,0.214,0.214,0.214h0.803c0.04,0.542,0.481,0.976,1.034,0.976s0.994-0.434,1.034-0.976
	h0.805c0.117,0,0.213-0.096,0.213-0.214v-1.837C78.051,74.382,77.131,73.461,76,73.461z M76,78.111
	c-0.316,0-0.568-0.241-0.606-0.548h1.213C76.568,77.87,76.316,78.111,76,78.111z"/>
<path display="none" d="M76.847,76.276c0.415-0.275,0.688-0.745,0.688-1.278c0-0.847-0.689-1.536-1.536-1.536
	s-1.535,0.689-1.535,1.536c0,0.533,0.273,1.003,0.688,1.278c-0.804,0.334-1.371,1.126-1.371,2.048c0,0.119,0.096,0.215,0.214,0.215
	s0.214-0.096,0.214-0.215c0-0.986,0.804-1.791,1.792-1.791c0.987,0,1.791,0.804,1.791,1.791c0,0.119,0.096,0.215,0.215,0.215
	c0.117,0,0.213-0.096,0.213-0.215C78.219,77.4,77.652,76.609,76.847,76.276z M74.892,74.998c0-0.611,0.496-1.108,1.107-1.108
	s1.108,0.497,1.108,1.108S76.611,76.105,76,76.105S74.892,75.609,74.892,74.998z"/>
<g display="none">
	<g display="inline">
		<path fill="#DCAA00" d="M321.538,77.188c-0.028-0.068-0.076-0.098-0.142-0.068c-0.068,0.028-0.064,0.088-0.039,0.146
			c0.121,0.287,0.121,0.579,0.033,0.874c-0.039,0.136-0.065,0.272-0.063,0.375c-0.001,0.258,0.044,0.466,0.135,0.665
			c0.024,0.055,0.065,0.091,0.129,0.064c0.063-0.027,0.079-0.076,0.05-0.143c-0.127-0.295-0.121-0.596-0.029-0.898
			C321.715,77.854,321.68,77.518,321.538,77.188z"/>
		<path fill="#DCAA00" d="M321.498,76.297c-1.038,0-1.881,0.842-1.881,1.88s0.843,1.88,1.881,1.88c1.037,0,1.88-0.842,1.88-1.88
			S322.535,76.297,321.498,76.297z M322.309,78.933c-0.121,0.271-0.307,0.478-0.61,0.545c-0.38,0.086-0.726-0.06-0.933-0.392
			c-0.145-0.235-0.223-0.549-0.223-0.858c0.003-0.368,0.051-0.678,0.225-0.955c0.362-0.581,1.154-0.557,1.486,0.043
			c0.116,0.21,0.174,0.437,0.189,0.673C322.469,78.313,322.441,78.632,322.309,78.933z"/>
	</g>
	<path display="inline" fill="#6E6F72" d="M324.01,78.133l-0.432-0.418l0.217-0.561l-0.52-0.199V76.4h-0.602l-0.234-0.555
		l-0.553,0.235l-0.433-0.417l-0.418,0.432l-0.562-0.215l-0.198,0.52h-0.556V77l-0.553,0.234l0.234,0.554l-0.417,0.433l0.433,0.418
		l-0.216,0.561l0.519,0.199v0.556h0.45v-0.446c-0.342-0.34-0.554-0.811-0.554-1.331c0-1.038,0.843-1.88,1.881-1.88
		c1.037,0,1.88,0.842,1.88,1.88c0,0.521-0.212,0.991-0.554,1.331v0.446h0.451v-0.601l0.553-0.235l-0.234-0.554L324.01,78.133z"/>
	<path display="inline" fill="#FFFFFF" d="M320.543,78.228c0.003-0.368,0.051-0.678,0.225-0.955
		c0.362-0.581,1.154-0.557,1.486,0.043c0.116,0.21,0.174,0.437,0.189,0.673c0.025,0.324-0.002,0.644-0.135,0.944
		c-0.121,0.271-0.307,0.478-0.61,0.545c-0.38,0.086-0.726-0.06-0.933-0.392C320.621,78.851,320.543,78.537,320.543,78.228
		 M321.327,78.515c-0.001,0.258,0.044,0.466,0.135,0.665c0.024,0.055,0.065,0.091,0.129,0.064c0.063-0.027,0.079-0.076,0.05-0.143
		c-0.127-0.295-0.121-0.596-0.029-0.898c0.104-0.349,0.068-0.686-0.073-1.016c-0.028-0.068-0.076-0.098-0.142-0.068
		c-0.068,0.028-0.064,0.088-0.039,0.146c0.121,0.287,0.121,0.579,0.033,0.874C321.352,78.275,321.325,78.412,321.327,78.515"/>
	<path display="inline" fill="#FFFFFF" d="M321.498,80.057c-0.37,0-0.713-0.11-1.004-0.295v2.097l1.004-0.517l1.004,0.517v-2.098
		C322.211,79.945,321.868,80.057,321.498,80.057z"/>
	<g display="inline">
		<path fill="#595A5C" d="M320.496,79.762c0.003,0.002,0.006,0.002,0.008,0.004c-0.119-0.075-0.231-0.159-0.331-0.258v2.351
			l0.323-0.166V79.762z"/>
		<path fill="#595A5C" d="M322.503,79.762C322.503,79.761,322.504,79.761,322.503,79.762l0.001,1.931l0.322,0.166v-2.351
			C322.729,79.604,322.619,79.688,322.503,79.762z"/>
	</g>
</g>
<path display="none" d="M79.435,74.593h-1.512V73.13c0-0.57-0.465-1.036-1.036-1.036h-1.774c-0.57,0-1.035,0.466-1.035,1.036v1.463
	h-1.513c-0.321,0-0.581,0.26-0.581,0.58v4.151c0,0.322,0.26,0.582,0.581,0.582h6.87c0.322,0,0.582-0.26,0.582-0.582v-4.151
	C80.017,74.853,79.757,74.593,79.435,74.593z M74.577,73.13c0-0.295,0.24-0.535,0.535-0.535h1.774c0.296,0,0.536,0.24,0.536,0.535
	v1.463h-2.846V73.13z"/>
<g display="none">
	<path display="inline" d="M79.356,72.223l-2.229,0.037c-0.107,0.002-0.211,0.046-0.285,0.122l-2.392,2.389
		c-0.107,0.109-0.268,0.148-0.414,0.104l-1.813-0.564l5.467,5.467l-0.563-1.814c-0.047-0.146-0.008-0.307,0.102-0.414l2.39-2.391
		c0.076-0.076,0.119-0.178,0.121-0.285l0.037-2.229C79.78,72.41,79.59,72.219,79.356,72.223z"/>
	<path display="inline" d="M74.475,77.213l-1.665-0.799l-0.036,2.135c-0.006,0.377,0.301,0.684,0.678,0.678l2.134-0.035
		l-0.797-1.666C74.723,77.389,74.611,77.277,74.475,77.213z"/>
</g>
<path display="none" d="M75.796,72.303l-3.6,2.016c-0.131,0.072-0.213,0.213-0.213,0.363v4.652c0,0.229,0.187,0.416,0.416,0.416
	h1.054c0.229,0,0.417-0.188,0.417-0.416V77.35c0-0.23,0.186-0.416,0.416-0.416h3.426c0.23,0,0.417,0.185,0.417,0.416v1.984
	c0,0.229,0.187,0.416,0.416,0.416h1.054c0.23,0,0.418-0.188,0.418-0.416v-4.652c0-0.15-0.082-0.291-0.213-0.363l-3.601-2.016
	C76.076,72.232,75.922,72.232,75.796,72.303"/>
<g display="none">
	<path display="inline" d="M79.505,72.22H72.53c-0.277,0-0.503,0.22-0.51,0.495l-0.032,1.445c-0.004,0.189,0.096,0.363,0.26,0.455
		l3.501,1.961c0.154,0.086,0.342,0.086,0.497,0l3.507-1.963c0.161-0.09,0.26-0.26,0.26-0.445v-1.439
		C80.013,72.448,79.786,72.22,79.505,72.22z"/>
	<circle display="inline" cx="76.048" cy="78.416" r="1.363"/>
</g>
<g display="none">
	<path display="inline" d="M77.484,76.206c-0.117,0-0.213,0.096-0.213,0.214v1.69h-3.382v-3.383h1.69
		c0.118,0,0.214-0.096,0.214-0.214S75.698,74.3,75.58,74.3h-1.904c-0.118,0-0.214,0.096-0.214,0.214v3.811
		c0,0.118,0.096,0.214,0.214,0.214h3.809c0.119,0,0.215-0.096,0.215-0.214V76.42C77.699,76.302,77.604,76.206,77.484,76.206z"/>
	<path display="inline" d="M75.014,75.976l-0.229,0.982c-0.017,0.072,0.005,0.147,0.057,0.2c0.041,0.04,0.096,0.063,0.151,0.063
		c0.017,0,0.032-0.002,0.049-0.006l0.982-0.229c0.038-0.009,0.074-0.029,0.103-0.057l1.405-1.404
		c0.041-0.04,0.063-0.095,0.063-0.151s-0.021-0.111-0.063-0.151l-0.753-0.754c-0.08-0.08-0.223-0.08-0.303,0l-1.404,1.405
		C75.043,75.901,75.023,75.938,75.014,75.976z M75.417,76.132l1.21-1.211l0.452,0.452l-1.21,1.21l-0.589,0.138L75.417,76.132z"/>
	<path display="inline" d="M78.477,74.276l-0.754-0.753c-0.084-0.082-0.219-0.082-0.303,0l-0.462,0.463
		c-0.083,0.084-0.083,0.219,0,0.303l0.753,0.753c0.041,0.041,0.096,0.063,0.15,0.063s0.109-0.021,0.152-0.063l0.463-0.463
		C78.559,74.495,78.559,74.36,78.477,74.276z M77.861,74.589l-0.451-0.451l0.162-0.161l0.451,0.451L77.861,74.589z"/>
</g>
<g display="none">
	<path display="inline" d="M77.821,74.519h-3.643c-0.118,0-0.214-0.096-0.214-0.214s0.096-0.214,0.214-0.214h3.643
		c0.118,0,0.214,0.096,0.214,0.214S77.939,74.519,77.821,74.519z"/>
	<path display="inline" d="M77.821,76.214h-3.643c-0.118,0-0.214-0.096-0.214-0.214s0.096-0.214,0.214-0.214h3.643
		c0.118,0,0.214,0.096,0.214,0.214S77.939,76.214,77.821,76.214z"/>
	<path display="inline" d="M77.821,77.908h-3.643c-0.118,0-0.214-0.096-0.214-0.213c0-0.119,0.096-0.215,0.214-0.215h3.643
		c0.118,0,0.214,0.096,0.214,0.215C78.035,77.813,77.939,77.908,77.821,77.908z"/>
</g>
<path display="none" d="M74.689,78.871c-0.064,0-0.128-0.024-0.177-0.073c-0.098-0.098-0.098-0.256,0-0.354L76.957,76l-2.444-2.444
	c-0.098-0.098-0.098-0.256,0-0.354s0.256-0.098,0.354,0l2.621,2.621c0.098,0.098,0.098,0.256,0,0.354l-2.621,2.621
	C74.817,78.847,74.754,78.871,74.689,78.871z"/>
<g display="none">
	<path display="inline" d="M79.463,72.681c-0.007-0.077-0.066-0.138-0.143-0.145l-2.937-0.269c-0.05-0.004-0.094,0.014-0.129,0.047
		l-3.939,3.939c-0.063,0.063-0.063,0.165,0,0.227l3.203,3.205c0.029,0.03,0.071,0.047,0.113,0.047c0.043,0,0.083-0.017,0.113-0.047
		l3.941-3.941c0.034-0.034,0.051-0.081,0.047-0.129L79.463,72.681z M75.631,79.348l-2.979-2.98l3.774-3.775l2.732,0.249l0.249,2.73
		L75.631,79.348z"/>
	<path display="inline" d="M75.546,76.042c-0.045-0.073-0.101-0.144-0.164-0.207c-0.068-0.066-0.138-0.125-0.21-0.173
		c-0.071-0.047-0.146-0.079-0.221-0.092c-0.075-0.014-0.151-0.009-0.228,0.014c-0.076,0.025-0.154,0.075-0.23,0.152
		c-0.075,0.075-0.125,0.152-0.149,0.231c-0.024,0.078-0.028,0.155-0.014,0.232s0.045,0.153,0.093,0.227
		c0.048,0.072,0.104,0.143,0.172,0.211c0.066,0.068,0.137,0.124,0.21,0.169c0.073,0.046,0.148,0.074,0.224,0.089
		c0.075,0.012,0.153,0.006,0.229-0.021c0.076-0.025,0.151-0.075,0.225-0.149c0.073-0.072,0.121-0.146,0.141-0.224
		c0.021-0.077,0.025-0.155,0.013-0.232C75.624,76.193,75.594,76.116,75.546,76.042z M75.34,76.598
		c-0.047,0.045-0.096,0.07-0.146,0.073c-0.049,0.003-0.101-0.005-0.15-0.024c-0.052-0.021-0.099-0.051-0.145-0.089
		c-0.046-0.039-0.088-0.076-0.124-0.111c-0.038-0.038-0.076-0.08-0.113-0.127c-0.036-0.047-0.064-0.097-0.083-0.146
		c-0.021-0.051-0.028-0.104-0.025-0.155c0.004-0.051,0.03-0.101,0.075-0.146c0.048-0.047,0.098-0.072,0.149-0.077
		c0.051-0.002,0.101,0.006,0.151,0.026c0.05,0.021,0.099,0.051,0.146,0.088c0.045,0.038,0.087,0.074,0.122,0.111
		c0.038,0.037,0.075,0.081,0.113,0.129c0.039,0.047,0.067,0.096,0.087,0.147c0.02,0.051,0.026,0.103,0.022,0.152
		C75.415,76.5,75.387,76.55,75.34,76.598z"/>
	<polygon display="inline" points="75.626,74.538 76.132,77.701 76.346,77.489 75.837,74.33 	"/>
	<path display="inline" d="M77.558,75.612c-0.046-0.073-0.102-0.143-0.165-0.207c-0.067-0.067-0.138-0.125-0.21-0.172
		c-0.071-0.048-0.146-0.08-0.222-0.093c-0.074-0.014-0.149-0.009-0.228,0.015c-0.075,0.024-0.153,0.073-0.23,0.152
		c-0.075,0.075-0.125,0.151-0.148,0.229c-0.024,0.079-0.029,0.157-0.014,0.234c0.015,0.076,0.045,0.152,0.092,0.225
		c0.048,0.074,0.104,0.145,0.172,0.213c0.067,0.067,0.138,0.123,0.211,0.168c0.074,0.046,0.146,0.073,0.223,0.087
		c0.075,0.013,0.15,0.006,0.228-0.021c0.076-0.025,0.151-0.075,0.225-0.149c0.072-0.071,0.12-0.146,0.142-0.224
		c0.023-0.075,0.027-0.152,0.015-0.23C77.633,75.762,77.604,75.686,77.558,75.612z M77.35,76.168
		c-0.046,0.046-0.093,0.069-0.146,0.074c-0.05,0.002-0.102-0.006-0.152-0.026c-0.048-0.021-0.097-0.051-0.144-0.088
		c-0.045-0.038-0.087-0.075-0.124-0.111c-0.037-0.037-0.075-0.081-0.112-0.126c-0.036-0.048-0.065-0.097-0.085-0.146
		c-0.02-0.052-0.026-0.103-0.023-0.155c0.005-0.053,0.03-0.102,0.075-0.147c0.048-0.047,0.098-0.073,0.148-0.076
		c0.051-0.004,0.101,0.005,0.152,0.025c0.05,0.021,0.099,0.05,0.145,0.089c0.046,0.038,0.087,0.075,0.122,0.11
		c0.038,0.038,0.075,0.08,0.114,0.128c0.039,0.049,0.066,0.098,0.086,0.147c0.021,0.052,0.027,0.103,0.023,0.154
		C77.424,76.071,77.398,76.121,77.35,76.168z"/>
</g>
</svg>
