<?xml version="1.0" encoding="utf-8"?>
<!-- Generator: Adobe Illustrator 16.0.0, SVG Export Plug-In . SVG Version: 6.00 Build 0)  -->
<!DOCTYPE svg PUBLIC "-//W3C//DTD SVG 1.1//EN" "http://www.w3.org/Graphics/SVG/1.1/DTD/svg11.dtd">
<svg version="1.1" id="Layer_1" xmlns="http://www.w3.org/2000/svg" xmlns:xlink="http://www.w3.org/1999/xlink" x="0px" y="0px"
	 width="152px" height="152px" viewBox="0 0 152 152" enable-background="new 0 0 152 152" xml:space="preserve">
<g display="none">
	<path display="inline" fill="#010101" d="M111.882,62.195c-2.839-6.826-7.1-12.926-12.36-18.047
		c-5.365-5.327-11.519-9.361-18.358-12.151c-7.155-2.95-14.727-4.501-22.514-4.501c-7.729,0-15.356,1.551-22.459,4.501
		c-6.84,2.791-13.047,6.825-18.41,12.151C12.57,49.269,8.415,55.369,5.416,62.195C2.417,69.23,1,76.523,1,84.174
		c0,7.808,1.416,15.1,4.416,22.138c2.999,6.827,7.154,12.928,12.363,18.045c5.363,5.328,11.57,9.363,18.41,12.154
		c7.104,2.948,14.73,4.549,22.459,4.549c7.788,0,15.359-1.601,22.514-4.549c6.84-2.791,12.993-6.826,18.358-12.154
		c5.261-5.117,9.521-11.218,12.36-18.045c3.051-7.038,4.631-14.33,4.631-22.138C116.513,76.523,114.933,69.23,111.882,62.195
		 M86.054,111.12c-7.257,7.347-17.097,11.225-27.405,11.225s-20.093-3.878-27.405-11.225c-7.261-7.141-11.255-16.655-11.255-26.946
		c0-10.135,3.995-19.599,11.255-26.788c7.312-7.344,17.097-11.221,27.405-11.221s20.148,3.877,27.405,11.221
		c7.315,7.189,11.416,16.652,11.416,26.788C97.47,94.465,93.369,103.979,86.054,111.12"/>
	<path display="inline" fill="#FF5000" d="M143.483,49.505c-7.907,7.907-18.742,9.893-24.204,4.433
		c-5.458-5.458-3.471-16.295,4.436-24.202c7.907-7.909,18.742-9.895,24.204-4.434C153.377,30.761,151.391,41.596,143.483,49.505"/>
	<path display="inline" fill="#FF5000" d="M133.853,79.731c-5.979-2.176-9.604-7.283-8.103-11.413
		c1.502-4.125,7.565-5.708,13.544-3.529c5.978,2.175,9.606,7.285,8.102,11.409C145.897,80.326,139.831,81.906,133.853,79.731"/>
	<path display="inline" fill="#FF5000" d="M116.201,22.479c0,6.374-3.566,11.54-7.969,11.54c-4.397,0-7.965-5.166-7.965-11.54
		c0-6.373,3.567-11.539,7.965-11.539C112.635,10.94,116.201,16.106,116.201,22.479"/>
</g>
<g>
	<rect x="0.83" y="69.034" fill="#010101" width="2.975" height="16.253"/>
	<polygon fill="#010101" points="21.182,69.034 21.182,85.287 18.512,85.287 9.521,73.761 9.521,85.287 6.55,85.287 6.55,69.034 
		9.608,69.034 18.29,80.162 18.29,69.034 	"/>
	<path fill="#010101" d="M38.318,73.832c-0.376-0.887-0.926-1.67-1.616-2.329c-2.574-2.424-6.428-2.468-7.075-2.468h-5.271v16.253
		h5.355c0.781,0,4.518-0.135,7.012-2.512c0.691-0.66,1.219-1.441,1.595-2.329c0.417-0.965,0.625-2.083,0.625-3.273
		C38.943,75.936,38.735,74.819,38.318,73.832 M35.67,79.312c-0.214,0.51-0.537,0.974-0.944,1.374
		c-1.796,1.718-4.846,1.679-4.931,1.679h-2.333V71.786h2.333c0.024,0,0.775-0.024,1.78,0.164c0.922,0.174,2.191,0.578,3.126,1.466
		c0.406,0.38,0.731,0.866,0.945,1.399c0.275,0.615,0.406,1.529,0.406,2.358C36.054,77.977,35.923,78.698,35.67,79.312"/>
	<path fill="#010101" d="M83.399,80.409l1.938,1.912c-0.593,0.725-1.318,1.341-2.142,1.816c-1.272,0.738-2.722,1.149-4.198,1.149
		c-1.126,0-2.191-0.231-3.206-0.656c-1.005-0.404-1.888-0.985-2.634-1.755c-0.765-0.743-1.359-1.625-1.763-2.608
		c-0.433-1.02-0.655-2.071-0.655-3.182c0-1.127,0.223-2.18,0.655-3.198c0.404-0.987,0.999-1.867,1.763-2.608
		c0.746-0.767,1.629-1.354,2.634-1.756c0.516-0.214,1.049-0.38,1.595-0.495c0.522-0.101,1.065-0.156,1.61-0.156
		c0.331,0,0.665,0.021,0.993,0.062c0.948,0.109,1.865,0.38,2.722,0.812c1.111,0.56,1.853,1.095,2.625,2.083l-1.938,1.9
		c-0.507-0.65-1.157-1.188-1.903-1.577c-0.797-0.379-1.633-0.581-2.498-0.581c-1.495,0-2.868,0.56-3.913,1.621
		c-1.06,1.031-1.631,2.407-1.631,3.893c0,1.47,0.571,2.844,1.631,3.875c1.045,1.062,2.418,1.622,3.913,1.622
		c0.979,0,1.972-0.271,2.817-0.761C82.432,81.451,82.972,80.972,83.399,80.409"/>
	<path fill="#010101" d="M102.412,73.906c-0.409-0.988-1.025-1.868-1.783-2.607c-0.773-0.769-1.663-1.351-2.65-1.753
		c-1.03-0.425-2.124-0.649-3.248-0.649c-1.116,0-2.217,0.224-3.241,0.649c-0.988,0.402-1.883,0.984-2.656,1.753
		c-0.751,0.739-1.354,1.619-1.788,2.607c-0.431,1.013-0.635,2.066-0.635,3.172c0,1.127,0.204,2.18,0.635,3.193
		c0.435,0.985,1.037,1.865,1.788,2.604c0.773,0.77,1.668,1.351,2.656,1.755c1.024,0.425,2.125,0.656,3.241,0.656
		c1.124,0,2.218-0.231,3.248-0.656c0.987-0.404,1.877-0.985,2.65-1.755c0.758-0.739,1.374-1.619,1.783-2.604
		c0.441-1.014,0.668-2.066,0.668-3.193C103.08,75.972,102.854,74.919,102.412,73.906 M98.685,80.966
		c-1.048,1.061-2.467,1.622-3.954,1.622c-1.488,0-2.9-0.562-3.956-1.622c-1.048-1.028-1.625-2.402-1.625-3.888
		c0-1.465,0.577-2.83,1.625-3.868c1.056-1.062,2.468-1.621,3.956-1.621c1.487,0,2.906,0.559,3.954,1.621
		c1.058,1.038,1.648,2.403,1.648,3.868C100.333,78.563,99.742,79.938,98.685,80.966"/>
	<path fill="#010101" d="M64.394,69.033h-3.242l-5.86,13.581l-1.162,2.674h3.111l1.517-3.425h8.133l1.487,3.425h3.045L64.394,69.033
		z M59.828,79.41l2.992-6.89l3.007,6.89H59.828z"/>
	<path fill="#010101" d="M54.716,83.042l-3.159-4.724c0.69-0.162,1.549-0.51,2.263-1.192c0.413-0.411,0.743-0.865,0.951-1.421
		c0.229-0.567,0.367-1.229,0.367-1.966c0-1.874-0.904-3.362-2.514-4.135c-1.136-0.546-2.224-0.571-2.359-0.571h-9.607v16.254h3.001
		V71.546h6.58c0.043,0,0.673,0.024,1.273,0.319c0.736,0.365,1.09,0.965,1.09,1.874c0,0.717-0.192,1.219-0.563,1.582
		c-0.619,0.59-1.665,0.615-1.757,0.615H46.34l6.558,9.352h3.32L54.716,83.042z"/>
	<path fill="#FF5000" d="M106.976,72.072c-1.143,1.143-2.704,1.427-3.495,0.64c-0.788-0.787-0.501-2.35,0.642-3.491
		c1.142-1.144,2.704-1.429,3.492-0.644C108.402,69.368,108.114,70.932,106.976,72.072"/>
	<path fill="#FF5000" d="M105.583,76.436c-0.862-0.313-1.386-1.051-1.168-1.648c0.216-0.594,1.092-0.823,1.956-0.509
		c0.861,0.313,1.386,1.051,1.168,1.647C107.322,76.522,106.449,76.75,105.583,76.436"/>
	<path fill="#FF5000" d="M103.037,68.173c0,0.919-0.516,1.666-1.149,1.666c-0.636,0-1.152-0.747-1.152-1.666
		c0-0.919,0.517-1.667,1.152-1.667C102.521,66.506,103.037,67.253,103.037,68.173"/>
	<g>
		<path fill="#FF5000" d="M113.023,70.607h6.428c1.478,0,2.597,0.38,3.356,1.139c0.76,0.76,1.14,1.824,1.14,3.193
			c0,1.369-0.38,2.437-1.14,3.204c-0.76,0.766-1.879,1.144-3.356,1.13h-4.477v5.994h-1.951V70.607z M114.975,77.629h3.819
			c1.108,0.014,1.92-0.212,2.434-0.677c0.513-0.465,0.769-1.136,0.769-2.013c0-0.875-0.256-1.543-0.769-2.001
			c-0.514-0.459-1.325-0.688-2.434-0.688h-3.819V77.629z"/>
		<path fill="#FF5000" d="M125.466,79.97c0-0.78,0.109-1.51,0.328-2.187c0.219-0.678,0.548-1.266,0.986-1.766
			c0.438-0.5,0.979-0.893,1.622-1.181c0.643-0.287,1.382-0.431,2.218-0.431c0.848,0,1.59,0.144,2.228,0.431
			c0.637,0.288,1.174,0.681,1.611,1.181c0.438,0.5,0.767,1.088,0.986,1.766c0.219,0.677,0.328,1.406,0.328,2.187
			s-0.109,1.506-0.328,2.178c-0.22,0.669-0.549,1.256-0.986,1.755c-0.438,0.5-0.975,0.889-1.611,1.169
			c-0.638,0.282-1.38,0.423-2.228,0.423c-0.836,0-1.575-0.141-2.218-0.423c-0.644-0.28-1.185-0.669-1.622-1.169
			c-0.438-0.499-0.768-1.086-0.986-1.755C125.575,81.476,125.466,80.75,125.466,79.97z M127.313,79.97
			c0,0.643,0.086,1.216,0.257,1.715c0.172,0.5,0.407,0.917,0.709,1.252c0.301,0.336,0.653,0.593,1.057,0.771
			c0.404,0.178,0.832,0.267,1.284,0.267c0.451,0,0.878-0.089,1.283-0.267c0.403-0.178,0.756-0.435,1.058-0.771
			c0.301-0.335,0.537-0.752,0.708-1.252c0.171-0.499,0.257-1.072,0.257-1.715s-0.086-1.215-0.257-1.715
			c-0.171-0.499-0.407-0.92-0.708-1.262c-0.302-0.342-0.654-0.602-1.058-0.78c-0.405-0.178-0.832-0.267-1.283-0.267
			c-0.452,0-0.88,0.089-1.284,0.267c-0.403,0.178-0.756,0.438-1.057,0.78c-0.302,0.342-0.537,0.763-0.709,1.262
			C127.399,78.755,127.313,79.327,127.313,79.97z"/>
		<path fill="#FF5000" d="M139.673,72.742h-1.746v-2.135h1.746V72.742z M137.927,74.652h1.746v10.615h-1.746V74.652z"/>
		<path fill="#FF5000" d="M142.382,74.652h1.643v1.684h0.041c0.726-1.287,1.876-1.93,3.449-1.93c0.698,0,1.28,0.096,1.746,0.288
			c0.465,0.191,0.842,0.458,1.129,0.801c0.288,0.342,0.489,0.75,0.605,1.222s0.175,0.997,0.175,1.572v6.979h-1.745v-7.186
			c0-0.657-0.192-1.177-0.575-1.561s-0.91-0.575-1.581-0.575c-0.534,0-0.996,0.083-1.386,0.247s-0.716,0.397-0.976,0.698
			c-0.26,0.3-0.455,0.654-0.585,1.057c-0.13,0.404-0.195,0.845-0.195,1.325v5.994h-1.745V74.652z"/>
	</g>
</g>
<g display="none">
	<g display="inline">
		<path fill="#DCAA00" d="M321.538,77.188c-0.028-0.068-0.076-0.098-0.142-0.068c-0.068,0.028-0.064,0.088-0.039,0.146
			c0.121,0.287,0.121,0.579,0.033,0.874c-0.039,0.136-0.065,0.272-0.063,0.375c-0.001,0.258,0.044,0.466,0.135,0.665
			c0.024,0.055,0.065,0.091,0.129,0.064c0.063-0.027,0.079-0.076,0.05-0.143c-0.127-0.295-0.121-0.596-0.029-0.898
			C321.715,77.854,321.68,77.518,321.538,77.188z"/>
		<path fill="#DCAA00" d="M321.498,76.297c-1.038,0-1.881,0.842-1.881,1.88s0.843,1.88,1.881,1.88c1.037,0,1.88-0.842,1.88-1.88
			S322.535,76.297,321.498,76.297z M322.309,78.933c-0.121,0.271-0.307,0.478-0.61,0.545c-0.38,0.086-0.726-0.06-0.933-0.392
			c-0.145-0.235-0.223-0.549-0.223-0.858c0.003-0.368,0.051-0.678,0.225-0.955c0.362-0.581,1.154-0.557,1.486,0.043
			c0.116,0.21,0.174,0.437,0.189,0.673C322.469,78.313,322.441,78.632,322.309,78.933z"/>
	</g>
	<path display="inline" fill="#6E6F72" d="M324.01,78.133l-0.432-0.418l0.217-0.561l-0.52-0.199V76.4h-0.602l-0.234-0.555
		l-0.553,0.235l-0.433-0.417l-0.418,0.432l-0.562-0.215l-0.198,0.52h-0.556V77l-0.553,0.234l0.234,0.554l-0.417,0.433l0.433,0.418
		l-0.216,0.561l0.519,0.199v0.556h0.45v-0.446c-0.342-0.34-0.554-0.811-0.554-1.331c0-1.038,0.843-1.88,1.881-1.88
		c1.037,0,1.88,0.842,1.88,1.88c0,0.521-0.212,0.991-0.554,1.331v0.446h0.451v-0.601l0.553-0.235l-0.234-0.554L324.01,78.133z"/>
	<path display="inline" fill="#FFFFFF" d="M320.543,78.228c0.003-0.368,0.051-0.678,0.225-0.955
		c0.362-0.581,1.154-0.557,1.486,0.043c0.116,0.21,0.174,0.437,0.189,0.673c0.025,0.324-0.002,0.644-0.135,0.944
		c-0.121,0.271-0.307,0.478-0.61,0.545c-0.38,0.086-0.726-0.06-0.933-0.392C320.621,78.851,320.543,78.537,320.543,78.228
		 M321.327,78.515c-0.001,0.258,0.044,0.466,0.135,0.665c0.024,0.055,0.065,0.091,0.129,0.064c0.063-0.027,0.079-0.076,0.05-0.143
		c-0.127-0.295-0.121-0.596-0.029-0.898c0.104-0.349,0.068-0.686-0.073-1.016c-0.028-0.068-0.076-0.098-0.142-0.068
		c-0.068,0.028-0.064,0.088-0.039,0.146c0.121,0.287,0.121,0.579,0.033,0.874C321.352,78.275,321.325,78.412,321.327,78.515"/>
	<path display="inline" fill="#FFFFFF" d="M321.498,80.057c-0.37,0-0.713-0.11-1.004-0.295v2.097l1.004-0.517l1.004,0.517v-2.098
		C322.211,79.945,321.868,80.057,321.498,80.057z"/>
	<g display="inline">
		<path fill="#595A5C" d="M320.496,79.762c0.003,0.002,0.006,0.002,0.008,0.004c-0.119-0.075-0.231-0.159-0.331-0.258v2.351
			l0.323-0.166V79.762z"/>
		<path fill="#595A5C" d="M322.503,79.762C322.503,79.761,322.504,79.761,322.503,79.762l0.001,1.931l0.322,0.166v-2.351
			C322.729,79.604,322.619,79.688,322.503,79.762z"/>
	</g>
</g>
<path display="none" d="M139.276,50.078h-27.851V23.126c0-10.507-8.564-19.089-19.089-19.089H59.645
	c-10.507,0-19.071,8.582-19.071,19.089v26.952H12.705C6.786,50.078,2,54.864,2,60.766v76.474c0,5.937,4.786,10.724,10.705,10.724
	h126.571c5.938,0,10.724-4.787,10.724-10.724V60.766C150,54.864,145.214,50.078,139.276,50.078z M49.786,23.126
	c0-5.433,4.426-9.859,9.859-9.859h32.692c5.451,0,9.877,4.426,9.877,9.859v26.952H49.786V23.126z"/>
<g display="none">
	<path display="inline" d="M137.837,6.413L96.78,7.097c-1.979,0.036-3.887,0.846-5.255,2.249l-44.06,44.008
		c-1.979,2.015-4.931,2.735-7.629,1.907L6.426,44.862l100.716,100.726l-10.381-33.429c-0.863-2.699-0.143-5.649,1.871-7.629
		l44.026-44.052c1.402-1.404,2.194-3.275,2.231-5.254l0.682-41.057C145.646,9.85,142.137,6.341,137.837,6.413z"/>
	<path display="inline" d="M47.897,98.342L17.221,83.615l-0.666,39.339c-0.108,6.944,5.542,12.595,12.487,12.486l39.312-0.648
		l-14.681-30.693C52.466,101.58,50.416,99.528,47.897,98.342z"/>
</g>
<path display="none" d="M72.24,7.895L5.921,45.029C3.511,46.36,2,48.952,2,51.722v85.705c0,4.21,3.436,7.664,7.664,7.664h19.414
	c4.228,0,7.682-3.454,7.682-7.664v-36.56c0-4.246,3.418-7.655,7.665-7.655h63.115c4.246,0,7.682,3.409,7.682,7.655v36.56
	c0,4.21,3.437,7.664,7.664,7.664H142.3c4.246,0,7.7-3.454,7.7-7.664V51.722c0-2.771-1.511-5.362-3.923-6.693L79.742,7.895
	C77.403,6.581,74.561,6.581,72.24,7.895"/>
<g display="none">
	<path display="inline" d="M140.57,6.368H12.063c-5.11,0-9.266,4.048-9.392,9.122L2.078,42.117
		c-0.072,3.491,1.763,6.693,4.786,8.385l64.5,36.127c2.843,1.583,6.297,1.583,9.158,0l64.617-36.163
		c2.969-1.655,4.786-4.786,4.786-8.205v-26.52C149.925,10.561,145.751,6.368,140.57,6.368z"/>
	<path display="inline" d="M76.887,95.399c-13.871,0-25.134,11.227-25.134,25.116c0,13.854,11.263,25.116,25.134,25.116
		c13.873,0,25.126-11.263,25.126-25.116C102.013,106.626,90.76,95.399,76.887,95.399z"/>
</g>
<path display="none" d="M139.835,132.022l-23.66-23.76c8.887-10.686,13.969-23.874,13.969-37.92
	c0-32.948-26.829-59.779-59.802-59.779c-32.947,0-59.778,26.831-59.778,59.779c0,32.937,26.832,59.768,59.778,59.768
	c3.045,0,5.512-2.467,5.512-5.487c0-3.07-2.467-5.537-5.512-5.537c-26.881,0-48.754-21.86-48.754-48.743
	c0-26.882,21.874-48.754,48.754-48.754c26.907,0,48.78,21.872,48.78,48.754c0,12.988-5.06,25.222-14.247,34.445
	c-0.63,0.604-0.68,1.461-0.932,2.267c-0.176,0.553-0.653,1.006-0.653,1.609c0,0.554,0.478,1.059,0.653,1.612
	c0.252,0.754,0.302,1.61,0.932,2.265l27.158,27.234c1.083,1.107,2.493,1.661,3.901,1.661c1.41,0,2.818-0.554,3.877-1.611
	C141.975,137.66,141.975,134.188,139.835,132.022z"/>
<path display="none" d="M76.019,10.558c-29.147,0-52.882,23.735-52.882,52.883v12.686c0,3.043,2.466,5.51,5.512,5.51
	c3.046,0,5.513-2.467,5.513-5.51V63.441c0-23.081,18.776-41.858,41.857-41.858c23.082,0,41.821,18.777,41.821,41.858v41.833H28.648
	c-3.045,0-5.512,2.467-5.512,5.514c0,3.043,2.466,5.51,5.512,5.51h20.69c1.033,13.971,12.41,25.145,26.655,25.145
	c14.247,0,25.624-11.174,26.643-25.145h20.74c3.02,0,5.486-2.467,5.486-5.51V63.441C128.863,34.293,105.154,10.558,76.019,10.558z
	 M75.994,130.418c-8.154,0-14.649-6.217-15.63-14.121h31.26C90.644,124.201,84.148,130.418,75.994,130.418z"/>
<path display="none" d="M97.84,83.104c10.687-7.098,17.734-19.206,17.734-32.948c0-21.822-17.759-39.593-39.58-39.593
	c-21.823,0-39.567,17.771-39.567,39.593c0,13.742,7.048,25.851,17.719,32.948c-20.715,8.608-35.338,29.033-35.338,52.794
	c0,3.071,2.466,5.538,5.512,5.538s5.513-2.467,5.513-5.538c0-25.422,20.715-46.148,46.187-46.148
	c25.448,0,46.149,20.727,46.149,46.148c0,3.071,2.467,5.538,5.538,5.538c3.02,0,5.486-2.467,5.486-5.538
	C133.192,112.088,118.594,91.688,97.84,83.104z M47.45,50.156c0-15.756,12.787-28.567,28.544-28.567
	c15.756,0,28.556,12.812,28.556,28.567c0,15.757-12.8,28.544-28.556,28.544C60.237,78.7,47.45,65.913,47.45,50.156z"/>
<g display="none">
	<path display="inline" d="M114.265,81.313c-3.02,0-5.486,2.466-5.486,5.512v43.569H21.602v-87.19h43.569
		c3.045,0,5.512-2.467,5.512-5.512c0-3.046-2.467-5.512-5.512-5.512H16.088c-3.045,0-5.512,2.465-5.512,5.512v98.213
		c0,3.047,2.467,5.512,5.512,5.512h98.176c3.071,0,5.538-2.465,5.538-5.512V86.824C119.803,83.778,117.336,81.313,114.265,81.313z"
		/>
	<path display="inline" d="M50.597,75.372l-5.915,25.32c-0.429,1.863,0.126,3.801,1.459,5.159c1.057,1.033,2.467,1.611,3.901,1.611
		c0.429,0,0.832-0.049,1.258-0.15l25.322-5.915c0.982-0.227,1.912-0.755,2.643-1.461l36.206-36.194
		c1.059-1.032,1.612-2.441,1.612-3.901s-0.554-2.87-1.612-3.902L96.055,36.508c-2.063-2.063-5.739-2.063-7.803,0l-36.195,36.22
		C51.352,73.458,50.823,74.389,50.597,75.372z M60.967,79.397l31.186-31.21l11.641,11.654L72.596,91.027l-15.178,3.55L60.967,79.397
		z"/>
	<path display="inline" d="M139.837,31.575l-19.431-19.406c-2.165-2.115-5.637-2.115-7.802,0L100.686,24.1
		c-2.139,2.165-2.139,5.637,0,7.802l19.419,19.407c1.057,1.057,2.467,1.611,3.876,1.611s2.82-0.554,3.928-1.611l11.929-11.931
		C141.952,37.213,141.952,33.74,139.837,31.575z M123.98,39.63l-11.629-11.629l4.18-4.153l11.628,11.629L123.98,39.63z"/>
</g>
<g display="none">
	<path display="inline" d="M122.942,37.836H29.058c-3.046,0-5.513-2.467-5.513-5.513c0-3.045,2.467-5.512,5.513-5.512h93.884
		c3.046,0,5.513,2.467,5.513,5.512C128.455,35.369,125.988,37.836,122.942,37.836z"/>
	<path display="inline" d="M122.942,81.53H29.058c-3.046,0-5.513-2.466-5.513-5.512c0-3.045,2.467-5.512,5.513-5.512h93.884
		c3.046,0,5.513,2.467,5.513,5.512C128.455,79.064,125.988,81.53,122.942,81.53z"/>
	<path display="inline" d="M122.942,125.188H29.058c-3.046,0-5.513-2.467-5.513-5.487c0-3.071,2.467-5.538,5.513-5.538h93.884
		c3.046,0,5.513,2.467,5.513,5.538C128.455,122.722,125.988,125.188,122.942,125.188z"/>
</g>
<path display="none" d="M42.223,150c-1.662,0-3.297-0.63-4.556-1.889c-2.517-2.518-2.517-6.594,0-9.111l63-63l-63-63.001
	c-2.517-2.517-2.517-6.594,0-9.111c2.517-2.518,6.594-2.518,9.111,0l67.556,67.556c2.518,2.517,2.518,6.594,0,9.11l-67.556,67.557
	C45.52,149.37,43.884,150,42.223,150z"/>
<g display="none">
	<path display="inline" d="M140.658,14.029c-0.128-1.44-1.24-2.571-2.663-2.699L83.154,6.316c-0.93-0.073-1.751,0.255-2.407,0.875
		l-73.56,73.56c-1.185,1.186-1.185,3.081,0,4.23l59.811,59.838c0.547,0.564,1.331,0.875,2.115,0.875c0.802,0,1.55-0.311,2.115-0.875
		l73.587-73.587c0.639-0.639,0.948-1.514,0.875-2.407L140.658,14.029z M69.113,138.51L13.497,82.866L83.975,12.37l51.013,4.65
		l4.649,50.985L69.113,138.51z"/>
	<path display="inline" d="M67.526,76.775c-0.838-1.367-1.877-2.681-3.063-3.866c-1.277-1.24-2.571-2.334-3.921-3.228
		c-1.331-0.875-2.717-1.477-4.121-1.714c-1.404-0.255-2.826-0.165-4.249,0.255c-1.422,0.474-2.881,1.404-4.303,2.844
		c-1.404,1.404-2.334,2.845-2.79,4.322c-0.456,1.459-0.529,2.899-0.255,4.34c0.273,1.44,0.838,2.863,1.731,4.23
		c0.894,1.35,1.933,2.662,3.21,3.938c1.239,1.276,2.553,2.316,3.92,3.155c1.367,0.856,2.771,1.386,4.176,1.659
		c1.404,0.219,2.863,0.109,4.285-0.383c1.422-0.475,2.826-1.404,4.194-2.79c1.367-1.35,2.261-2.735,2.626-4.176
		c0.4-1.44,0.474-2.899,0.236-4.34C68.968,79.602,68.421,78.161,67.526,76.775z M63.679,87.169
		c-0.875,0.839-1.786,1.313-2.734,1.368c-0.912,0.055-1.879-0.091-2.809-0.456c-0.967-0.401-1.842-0.948-2.698-1.659
		c-0.857-0.729-1.642-1.423-2.316-2.079c-0.711-0.711-1.422-1.495-2.115-2.37c-0.675-0.876-1.203-1.806-1.55-2.735
		c-0.4-0.948-0.529-1.933-0.475-2.899c0.074-0.948,0.566-1.878,1.404-2.735c0.895-0.875,1.824-1.349,2.791-1.44
		c0.947-0.037,1.877,0.109,2.826,0.492c0.93,0.401,1.842,0.948,2.717,1.642c0.839,0.711,1.623,1.386,2.279,2.079
		c0.711,0.693,1.404,1.513,2.115,2.407c0.729,0.875,1.258,1.787,1.623,2.754c0.364,0.948,0.492,1.914,0.419,2.845
		C65.065,85.346,64.555,86.276,63.679,87.169z"/>
	<polygon display="inline" points="69.022,48.694 78.468,107.766 82.461,103.809 72.961,44.81 	"/>
	<path display="inline" d="M105.082,68.752c-0.857-1.367-1.896-2.662-3.082-3.865c-1.259-1.259-2.571-2.334-3.921-3.209
		c-1.331-0.894-2.717-1.496-4.148-1.732c-1.386-0.255-2.789-0.164-4.248,0.273c-1.404,0.456-2.863,1.368-4.304,2.845
		c-1.404,1.404-2.334,2.826-2.771,4.285c-0.456,1.477-0.547,2.936-0.256,4.376c0.273,1.422,0.839,2.845,1.714,4.194
		c0.895,1.386,1.934,2.699,3.21,3.975c1.258,1.259,2.571,2.298,3.938,3.137c1.386,0.857,2.735,1.367,4.167,1.623
		c1.404,0.236,2.808,0.109,4.249-0.383c1.422-0.475,2.826-1.404,4.193-2.79c1.35-1.331,2.243-2.735,2.645-4.176
		c0.438-1.404,0.51-2.845,0.273-4.304C106.485,71.561,105.938,70.138,105.082,68.752z M101.197,79.146
		c-0.856,0.856-1.731,1.294-2.717,1.386c-0.93,0.036-1.896-0.109-2.845-0.492c-0.894-0.401-1.814-0.948-2.689-1.642
		c-0.839-0.711-1.623-1.404-2.315-2.079c-0.693-0.693-1.404-1.514-2.098-2.353c-0.675-0.894-1.222-1.805-1.586-2.735
		c-0.365-0.967-0.492-1.915-0.438-2.899c0.091-0.985,0.565-1.896,1.403-2.754c0.894-0.875,1.824-1.367,2.772-1.422
		c0.948-0.073,1.878,0.091,2.845,0.474c0.93,0.401,1.851,0.93,2.707,1.66c0.857,0.711,1.623,1.404,2.279,2.061
		c0.712,0.711,1.404,1.495,2.134,2.389c0.729,0.912,1.24,1.824,1.604,2.753c0.383,0.967,0.511,1.915,0.438,2.881
		C102.583,77.322,102.109,78.253,101.197,79.146z"/>
</g>
</svg>
